<?xml version="1.0" encoding="utf-8"?><svg xml:space="preserve" viewBox="0 0 100 100" y="0" x="0" xmlns="http://www.w3.org/2000/svg" id="圖層_1" version="1.1" width="128px" height="128px" xmlns:xlink="http://www.w3.org/1999/xlink" style="width:100%;height:100%;background-size:initial;background-repeat-y:initial;background-repeat-x:initial;background-position-y:initial;background-position-x:initial;background-origin:initial;background-image:initial;background-color:rgb(255, 255, 255);background-clip:initial;background-attachment:initial;animation-play-state:paused" ><g class="ldl-scale" style="transform-origin:50% 50%;transform:rotate(0deg) scale(0.8, 0.8);animation-play-state:paused" ><g style="animation-play-state:paused" ><path stroke-miterlimit="10" stroke-width="3.5" stroke="#333" fill="#e0e0e0" d="M54.983 41.105h-8.774V28.558a2.547 2.547 0 0 1 2.545-2.545h3.685a2.547 2.547 0 0 1 2.545 2.545l-.001 12.547z" style="stroke:rgb(240, 141, 48);fill:rgb(214, 3, 120);animation-play-state:paused" ></path></g>
<g style="animation-play-state:paused" ><path stroke-miterlimit="10" stroke-width="3.5" stroke="#333" fill="#f8b26a" d="M56.036 18.117c0 2.983-2.457 5.44-5.44 5.44s-5.44-2.457-5.44-5.44S50.596 7.5 50.596 7.5s5.44 7.546 5.44 10.617z" style="stroke:rgb(240, 141, 48);fill:rgb(164, 157, 24);animation-play-state:paused" ></path></g>
<g style="animation-play-state:paused" ><path stroke-miterlimit="10" stroke-width="3.5" stroke="#333" fill="#e0e0e0" d="M69.022 42.421h-8.774V29.874a2.547 2.547 0 0 1 2.545-2.545h3.685a2.547 2.547 0 0 1 2.545 2.545v12.547z" style="stroke:rgb(240, 141, 48);fill:rgb(214, 3, 120);animation-play-state:paused" ></path></g>
<g style="animation-play-state:paused" ><path stroke-miterlimit="10" stroke-width="3.5" stroke="#333" fill="#f8b26a" d="M68.583 20.223a3.931 3.931 0 0 1-3.948 3.948c-2.194 0-3.948-1.755-3.948-3.948s3.948-7.634 3.948-7.634 3.948 5.528 3.948 7.634z" style="stroke:rgb(240, 141, 48);fill:rgb(164, 157, 24);animation-play-state:paused" ></path></g>
<g style="animation-play-state:paused" ><path stroke-miterlimit="10" stroke-width="3.5" stroke="#333" fill="#e0e0e0" d="M40.944 42.421H32.17V29.874a2.547 2.547 0 0 1 2.545-2.545H38.4a2.547 2.547 0 0 1 2.545 2.545v12.547z" style="stroke:rgb(240, 141, 48);fill:rgb(214, 3, 120);animation-play-state:paused" ></path></g>
<g style="animation-play-state:paused" ><path stroke-miterlimit="10" stroke-width="3.5" stroke="#333" fill="#f8b26a" d="M40.505 20.223c0 2.194-1.755 3.948-3.948 3.948s-3.948-1.755-3.948-3.948 3.948-7.634 3.948-7.634 3.948 5.528 3.948 7.634z" style="stroke:rgb(240, 141, 48);fill:rgb(164, 157, 24);animation-play-state:paused" ></path></g>
<path stroke-miterlimit="10" stroke-width="3.5" stroke="#333" fill="#fff" d="M86.224 92.5H13.776V71.046a7.373 7.373 0 0 1 7.372-7.372h57.704a7.373 7.373 0 0 1 7.372 7.372V92.5z" style="stroke:rgb(240, 141, 48);fill:rgb(240, 184, 211);animation-play-state:paused" ></path>
<path stroke-miterlimit="10" stroke-width="3.5" stroke="#333" fill="#fff" d="M67.085 40.229h-34.17a9.392 9.392 0 0 0-9.392 9.392v14.053h52.952V49.621a9.39 9.39 0 0 0-9.39-9.392z" style="stroke:rgb(240, 141, 48);fill:rgb(240, 184, 211);animation-play-state:paused" ></path>
<path stroke-miterlimit="10" stroke-width="3.5" stroke="#333" fill="#e15b64" d="M79.16 63.674H20.84c-3.902 0-7.064 3.444-7.064 7.693v5.388c2.09 1.44 4.559 2.285 7.215 2.285 3.925 0 7.449-1.832 9.92-4.74 2.471 2.908 5.995 4.74 9.92 4.74s7.449-1.832 9.92-4.74c2.471 2.908 5.995 4.74 9.92 4.74s7.449-1.832 9.92-4.74c2.471 2.908 5.995 4.74 9.92 4.74 2.044 0 3.975-.508 5.712-1.392v-6.282c.001-4.248-3.162-7.692-7.063-7.692z" style="stroke:rgb(240, 141, 48);fill:rgb(190, 175, 136);animation-play-state:paused" ></path>
<path stroke-miterlimit="10" stroke-width="3.5" stroke="#333" fill="#e15b64" d="M67.085 40.229h-34.17a9.392 9.392 0 0 0-9.392 9.392v4.15a10.64 10.64 0 0 0 12.672-1.288c1.901 1.737 4.424 2.805 7.202 2.805s5.301-1.068 7.202-2.805c1.901 1.737 4.424 2.805 7.202 2.805s5.301-1.068 7.202-2.805a10.649 10.649 0 0 0 11.472 1.913v-4.775a9.39 9.39 0 0 0-9.39-9.392z" style="stroke:rgb(240, 141, 48);fill:rgb(190, 175, 136);animation-play-state:paused" ></path>
<metadata xmlns:d="https://loading.io/stock/" style="animation-play-state:paused" ><d:name style="animation-play-state:paused" >cake</d:name>


<d:tags style="animation-play-state:paused" >cake,birthday,candle,dessert,wedding,party,celebrate,congratulate,festival</d:tags>


<d:license style="animation-play-state:paused" >by</d:license>


<d:slug style="animation-play-state:paused" >ilzpcw</d:slug></metadata></g><!-- generated by https://loading.io/ --></svg>